<?xml version="1.0" encoding="utf-8"?>
<!-- Generator: Adobe Illustrator 23.0.1, SVG Export Plug-In . SVG Version: 6.00 Build 0)  -->
<svg version="1.1" id="Layer_1" xmlns="http://www.w3.org/2000/svg" xmlns:xlink="http://www.w3.org/1999/xlink" x="0px" y="0px"
	 viewBox="0 0 200 200" style="enable-background:new 0 0 200 200;" xml:space="preserve">
<g>
	<path d="M139.7,72.7c-8.1,0-14.7,6.6-14.7,14.7c0,8.1,6.6,14.7,14.7,14.7c8.1,0,14.7-6.6,14.7-14.7
		C154.4,79.2,147.8,72.7,139.7,72.7z"/>
	<path d="M185.6,126.8l-9-50.4c-3.2-22.4-14.7-35.8-34.2-35.8h-14.8c-5,0-7.4,4.6-9.2,7.9c-0.4,0.8-1.1,2-1.5,2.7H100H83.2
		c-0.5-0.6-1.1-1.8-1.5-2.7c-1.8-3.3-4.2-7.9-9.2-7.9H57.7c-19.6,0-31,13.4-34.2,35.8l-9,50.3c-1.1,9.1,0.8,18.9,5.7,24.5
		c4.6,5.2,11.5,8.1,19.6,8.1c9.3,0,15.4-9.9,22-18.1c8.7-11,18.6-19.3,38.3-19.3s29.6,8.3,38.3,19.3c6.6,8.2,12.7,18.1,22,18.1
		c8,0,15-2.9,19.6-8.1C184.8,145.7,186.7,135.9,185.6,126.8z M78.5,92.4H66.6v11.8c0,2.9-2.3,5.2-5.2,5.2s-5.2-2.3-5.2-5.2V92.4
		H44.4c-2.9,0-5.2-2.3-5.2-5.2c0-2.9,2.3-5.2,5.2-5.2h11.8V70.1c0-2.9,2.3-5.2,5.2-5.2s5.2,2.3,5.2,5.2V82h11.8
		c2.9,0,5.2,2.3,5.2,5.2C83.7,90,81.3,92.4,78.5,92.4z M139.7,110.3c-12.7,0-23-10.3-23-23c0-12.7,10.3-23,23-23
		c12.7,0,23,10.3,23,23C162.7,100,152.4,110.3,139.7,110.3z"/>
</g>
</svg>
